G04 EasyPC Gerber Version 21.0.3 Build 4286 *
G04 #@! TF.Part,Single*
G04 #@! TF.FileFunction,Soldermask,Bot *
G04 #@! TF.FilePolarity,Negative *
%FSLAX45Y45*%
%MOIN*%
G04 #@! TA.AperFunction,ComponentPad*
%ADD81C,0.08283*%
%ADD83C,0.10449*%
%ADD82C,0.13598*%
%ADD160C,0.15567*%
%ADD84C,0.18717*%
%ADD159C,0.19110*%
G04 #@! TA.AperFunction,WasherPad*
%ADD26C,0.25016*%
X0Y0D02*
D02*
D26*
X24920Y24837D03*
Y201688D03*
X178148Y24837D03*
Y201688D03*
D02*
D81*
X51341Y34213D03*
Y54213D03*
X71341Y34213D03*
Y54213D03*
X91341Y34213D03*
Y54213D03*
X111341Y34213D03*
Y54213D03*
X131341Y34213D03*
Y54213D03*
X151341Y34213D03*
Y54213D03*
D02*
D82*
X51341Y19213D03*
X151341D03*
D02*
D83*
X76301Y164408D03*
Y204408D03*
X86301Y164408D03*
Y204408D03*
X116301Y164408D03*
Y204408D03*
X126301Y164408D03*
Y204408D03*
D02*
D84*
X56301Y274408D03*
X146301D03*
D02*
D159*
X28580Y85115D03*
Y141050D03*
X56287Y84241D03*
Y140176D03*
X84118Y84366D03*
Y140301D03*
X112198Y83992D03*
Y139927D03*
X140903Y84241D03*
Y140176D03*
X170731Y84491D03*
Y140426D03*
D02*
D160*
X28580Y104800D03*
Y121365D03*
X56287Y103926D03*
Y120491D03*
X84118Y104051D03*
Y120616D03*
X112198Y103677D03*
Y120242D03*
X140903Y103926D03*
Y120491D03*
X170731Y104176D03*
Y120741D03*
X0Y0D02*
M02*
