G04 EasyPC Gerber Version 21.0.3 Build 4286 *
G04 #@! TF.Part,Single*
G04 #@! TF.FileFunction,Copper,L2,Bot *
G04 #@! TF.FilePolarity,Positive *
%FSLAX45Y45*%
%MOIN*%
%ADD10C,0.00500*%
%ADD24C,0.05000*%
G04 #@! TA.AperFunction,ComponentPad*
%ADD77C,0.07283*%
%ADD79C,0.09449*%
%ADD78C,0.12598*%
%ADD22C,0.14567*%
%ADD80C,0.17717*%
%ADD21C,0.18110*%
G04 #@! TA.AperFunction,WasherPad*
%ADD12C,0.24016*%
X0Y0D02*
D02*
D10*
X58783Y61446D02*
X40062D01*
Y111741*
X15226*
X15601Y44847*
X58783*
Y61446*
G36*
X40062*
Y111741*
X15226*
X15601Y44847*
X58783*
Y61446*
G37*
X82370Y63068D02*
X71513D01*
Y111367*
X42184Y111617*
Y63068*
X60530*
Y44722*
X82370*
Y63068*
G36*
X71513*
Y111367*
X42184Y111617*
Y63068*
X60530*
Y44722*
X82370*
Y63068*
G37*
X103462Y68310D02*
X98720D01*
Y111117*
X73010Y111617*
Y64067*
X83993*
Y44348*
X103462*
Y68310*
G36*
X98720*
Y111117*
X73010Y111617*
Y64067*
X83993*
Y44348*
X103462*
Y68310*
G37*
X104960Y69433D02*
Y43848D01*
X124304*
Y111242*
X100217Y111367*
Y69433*
X104960*
G36*
Y43848*
X124304*
Y111242*
X100217Y111367*
Y69433*
X104960*
G37*
X125428Y110618D02*
Y43973D01*
X145646*
Y63068*
X156129*
Y111242*
X125428Y110618*
G36*
Y43973*
X145646*
Y63068*
X156129*
Y111242*
X125428Y110618*
G37*
X147268Y61820D02*
Y43724D01*
X188952*
Y111741*
X157252Y110993*
Y61820*
X147268*
G36*
Y43724*
X188952*
Y111741*
X157252Y110993*
Y61820*
X147268*
G37*
X188079Y188246D02*
X181670D01*
G75*
G02X176266I-2702J12979*
G01*
X164366*
Y212832*
X101590*
Y154299*
X15102*
X15601Y113863*
X188079*
Y188246*
G36*
X181670*
G75*
G02X176266I-2702J12979*
G01*
X164366*
Y212832*
X101590*
Y154299*
X15102*
X15601Y113863*
X188079*
Y188246*
G37*
D02*
D12*
X24920Y24837D03*
Y201688D03*
X178148Y24837D03*
Y201688D03*
D02*
D21*
X28580Y85115D03*
Y141050D03*
X56287Y84241D03*
Y140176D03*
X84118Y84366D03*
Y140301D03*
X112198Y83992D03*
Y139927D03*
X140903Y84241D03*
Y140176D03*
X170731Y84491D03*
Y140426D03*
D02*
D22*
X28580Y104800D03*
Y121365D03*
X56287Y103926D03*
Y120491D03*
X84118Y104051D03*
Y120616D03*
X112198Y103677D03*
Y120242D03*
X140903Y103926D03*
Y120491D03*
X170731Y104176D03*
Y120741D03*
D02*
D24*
X28580Y85115D02*
Y104800D01*
Y141050D02*
Y121365D01*
X51341Y54213D02*
X28580D01*
Y85115*
X56287Y84241D02*
X65522D01*
Y54213*
X71341*
X56287Y84241D02*
Y103926D01*
Y140176D02*
Y141050D01*
X28580*
X56287Y140176D02*
Y120491D01*
X84118Y84366D02*
Y75673D01*
Y84366D02*
Y104051D01*
Y140301D02*
X70140D01*
Y140176*
X56287*
X84118Y140301D02*
Y120616D01*
X91341Y54213D02*
Y84366D01*
X84118*
X111341Y54213D02*
X112198D01*
Y83992*
Y103677*
Y139927D02*
Y120242D01*
X131341Y54213D02*
Y84241D01*
X140903*
Y103926*
Y140176D02*
X112448D01*
Y140301*
X84118*
X140903Y140176D02*
X112198D01*
Y139927*
X140903Y140176D02*
Y120491D01*
X151341Y54213D02*
X170731D01*
Y84491*
Y104176*
Y140426D02*
X140903D01*
Y140176*
X170731Y140426D02*
Y120741D01*
D02*
D77*
X51341Y34213D03*
Y54213D03*
X71341Y34213D03*
Y54213D03*
X91341Y34213D03*
Y54213D03*
X111341Y34213D03*
Y54213D03*
X131341Y34213D03*
Y54213D03*
X151341Y34213D03*
Y54213D03*
D02*
D78*
X51341Y19213D03*
X151341D03*
D02*
D79*
X76301Y164408D03*
Y204408D03*
X86301Y164408D03*
Y204408D03*
X116301Y164408D03*
Y204408D03*
X126301Y164408D03*
Y204408D03*
D02*
D80*
X56301Y274408D03*
X146301D03*
X0Y0D02*
M02*
